<?xml version="1.0" encoding="UTF-8"?>
<svg xmlns="http://www.w3.org/2000/svg" viewBox="0 0 100 100" width="512" height="512">
  <title>TrackGlance monochrome Locus function icon</title>
  <g fill="none" stroke="#f1f5f9" stroke-linecap="round" stroke-linejoin="round">
    <path d="M 20 31 C 32 22, 68 22, 80 35 C 91 47, 88 70, 75 82 C 62 93, 37 93, 24 83 C 12 73, 9 42, 20 31 Z" stroke-width="12"/>
    <path d="M 18 50 Q 37 43, 55 47" stroke-width="12"/>
    <path d="M 17 68 Q 37 60, 56 64" stroke-width="12"/>
  </g>
  <g fill="none" stroke="#1e293b" stroke-linecap="round" stroke-linejoin="round">
    <path d="M 20 31 C 32 22, 68 22, 80 35 C 91 47, 88 70, 75 82 C 62 93, 37 93, 24 83 C 12 73, 9 42, 20 31 Z" stroke-width="6"/>
    <path d="M 18 50 Q 37 43, 55 47" stroke-width="6"/>
    <path d="M 17 68 Q 37 60, 56 64" stroke-width="6"/>
  </g>
  <path d="M 66 18 C 58 18, 52 24, 52 32 C 52 42, 66 57, 66 57 C 66 57, 80 42, 80 32 C 80 24, 74 18, 66 18 Z M 66 27 C 63 27, 61 29, 61 32 C 61 35, 63 37, 66 37 C 69 37, 71 35, 71 32 C 71 29, 69 27, 66 27 Z" fill="#1e293b" fill-rule="evenodd" stroke="#f1f5f9" stroke-linejoin="round" stroke-width="5"/>
</svg>
